<svg width="21" height="21" viewBox="0 0 21 21" fill="none" xmlns="http://www.w3.org/2000/svg">
<path d="M13.6683 9.44481V9.45537M3.29569 6.67724C2.83274 6.32143 2.47718 5.84455 2.26831 5.29929C2.05944 4.75404 2.0054 4.16166 2.11215 3.58761C2.21891 3.01356 2.4823 2.48021 2.87322 2.0465C3.26414 1.61279 3.76737 1.29561 4.32728 1.13001C4.8872 0.964421 5.482 0.956863 6.04594 1.10818C6.60988 1.25949 7.121 1.56378 7.52282 1.98742C7.92464 2.41106 8.2015 2.93755 8.3228 3.50869C8.4441 4.07984 8.40513 4.67341 8.21018 5.22379" stroke="#019382" stroke-width="1.8" stroke-linecap="round" stroke-linejoin="round"/>
<path d="M14.7238 2.05618V6.07032C16.0301 6.8262 17.0247 8.02245 17.5294 9.44481H18.9448C19.2248 9.44481 19.4933 9.55602 19.6912 9.75397C19.8892 9.95192 20.0004 10.2204 20.0004 10.5003V12.6114C20.0004 12.8913 19.8892 13.1598 19.6912 13.3577C19.4933 13.5557 19.2248 13.6669 18.9448 13.6669H17.5283C17.1737 14.6696 16.571 15.5668 15.7783 16.2772V18.4167C15.7783 18.8366 15.6115 19.2393 15.3146 19.5363C15.0176 19.8332 14.6149 20 14.195 20C13.7751 20 13.3724 19.8332 13.0755 19.5363C12.7785 19.2393 12.6117 18.8366 12.6117 18.4167V17.8014C12.2629 17.8598 11.9099 17.8891 11.5562 17.889H7.33413C6.98047 17.8891 6.62742 17.8598 6.27862 17.8014V18.4167C6.27862 18.8366 6.11181 19.2393 5.81488 19.5363C5.51796 19.8332 5.11525 20 4.69534 20C4.27543 20 3.87271 19.8332 3.57579 19.5363C3.27887 19.2393 3.11206 18.8366 3.11206 18.4167V16.2772C2.15572 15.4222 1.48157 14.2969 1.17886 13.0503C0.876142 11.8037 0.959129 10.4946 1.41683 9.29622C1.87454 8.09783 2.68538 7.0667 3.74203 6.3393C4.79868 5.6119 6.05132 5.22253 7.33413 5.22274H9.97293L14.7228 2.05618H14.7238Z" stroke="#019382" stroke-width="1.8" stroke-linecap="round" stroke-linejoin="round"/>
</svg>
