<svg width="19" height="15" viewBox="0 0 19 15" fill="none" xmlns="http://www.w3.org/2000/svg">
<path d="M0.43868 6.0975C0.157779 6.37875 -3.30282e-07 6.76 -3.12907e-07 7.1575C-2.95532e-07 7.555 0.157779 7.93625 0.43868 8.2175L6.09468 13.8765C6.37607 14.1579 6.75773 14.316 7.15568 14.316C7.55363 14.316 7.93529 14.1579 8.21668 13.8765C8.49808 13.5951 8.65616 13.2135 8.65616 12.8155C8.65616 12.4175 8.49808 12.0359 8.21668 11.7545L5.12068 8.6575L16.6557 8.6575C17.0535 8.6575 17.435 8.49946 17.7163 8.21816C17.9976 7.93685 18.1557 7.55532 18.1557 7.1575C18.1557 6.75967 17.9976 6.37814 17.7163 6.09684C17.435 5.81553 17.0535 5.6575 16.6557 5.6575L5.12068 5.6575L8.21668 2.5615C8.35601 2.42216 8.46654 2.25675 8.54194 2.07471C8.61735 1.89266 8.65616 1.69754 8.65616 1.5005C8.65616 1.30345 8.61735 1.10834 8.54194 0.926289C8.46654 0.744242 8.35601 0.57883 8.21668 0.439498C8.07735 0.300165 7.91194 0.189642 7.72989 0.114236C7.54784 0.0388295 7.35273 1.77984e-05 7.15568 1.7807e-05C6.95863 1.78156e-05 6.76352 0.0388295 6.58147 0.114236C6.39942 0.189642 6.23401 0.300165 6.09468 0.439498L0.43868 6.0975Z" fill="#34257B"/>
</svg>
