<svg width="19" height="19" viewBox="0 0 19 19" fill="none" xmlns="http://www.w3.org/2000/svg">
<path d="M13.75 3.125H16.9375C17.2193 3.125 17.4895 3.23694 17.6888 3.4362C17.8881 3.63546 18 3.90571 18 4.1875V15.875C18 16.4386 17.7761 16.9791 17.3776 17.3776C16.9791 17.7761 16.4386 18 15.875 18M15.875 18C15.3114 18 14.7709 17.7761 14.3724 17.3776C13.9739 16.9791 13.75 16.4386 13.75 15.875V2.0625C13.75 1.78071 13.6381 1.51046 13.4388 1.3112C13.2395 1.11194 12.9693 1 12.6875 1H2.0625C1.78071 1 1.51046 1.11194 1.3112 1.3112C1.11194 1.51046 1 1.78071 1 2.0625V14.8125C1 15.6579 1.33583 16.4686 1.9336 17.0664C2.53137 17.6642 3.34212 18 4.1875 18H15.875ZM5.25 5.25H9.5M5.25 9.5H9.5M5.25 13.75H9.5" stroke="#877BF5" stroke-width="1.8" stroke-linecap="round" stroke-linejoin="round"/>
</svg>
