<svg width="19" height="15" viewBox="0 0 19 15" fill="none" xmlns="http://www.w3.org/2000/svg">
<path d="M18.5613 8.90253C18.8422 8.62128 19 8.24003 19 7.84253C19 7.44503 18.8422 7.06378 18.5613 6.78253L12.9053 1.12353C12.6239 0.842138 12.2423 0.684052 11.8443 0.684052C11.4464 0.684053 11.0647 0.842139 10.7833 1.12353C10.5019 1.40493 10.3438 1.78658 10.3438 2.18453C10.3438 2.58249 10.5019 2.96414 10.7833 3.24553L13.8793 6.34253L2.34432 6.34253C1.9465 6.34253 1.56497 6.50057 1.28366 6.78187C1.00236 7.06318 0.844321 7.44471 0.844321 7.84253C0.844321 8.24036 1.00236 8.62189 1.28366 8.90319C1.56497 9.1845 1.9465 9.34253 2.34432 9.34253L13.8793 9.34253L10.7833 12.4385C10.644 12.5779 10.5335 12.7433 10.4581 12.9253C10.3827 13.1074 10.3438 13.3025 10.3438 13.4995C10.3438 13.6966 10.3827 13.8917 10.4581 14.0737C10.5335 14.2558 10.644 14.4212 10.7833 14.5605C10.9227 14.6999 11.0881 14.8104 11.2701 14.8858C11.4522 14.9612 11.6473 15 11.8443 15C12.0414 15 12.2365 14.9612 12.4185 14.8858C12.6006 14.8104 12.766 14.6999 12.9053 14.5605L18.5613 8.90253Z" fill="#34257B"/>
</svg>
